HIERARCHY
ROOT Hips
{
    OFFSET 0.000000 0.000000 0.000000
    CHANNELS 6 Xposition Yposition Zposition Zrotation Xrotation Yrotation
    JOINT Spine
    {
        OFFSET -0.000000 0.081343 0.000000
        CHANNELS 3 Zrotation Xrotation Yrotation
        JOINT Spine1
        {
            OFFSET -0.000000 0.243280 0.000000
            CHANNELS 3 Zrotation Xrotation Yrotation
            JOINT Neck
            {
                OFFSET -0.000000 0.242281 0.022026
                CHANNELS 3 Zrotation Xrotation Yrotation
                JOINT Head
                {
                    OFFSET -0.000000 0.149025 -0.021289
                    CHANNELS 3 Zrotation Xrotation Yrotation
                    End Site
                    {
                        OFFSET -0.000000 0.198396 0.000000
                    }
                }
            }
            JOINT LeftShoulder
            {
                OFFSET 0.039707 0.224479 -0.002125
                CHANNELS 3 Zrotation Xrotation Yrotation
                JOINT LeftArm
                {
                    OFFSET 0.116942 0.000000 0.000000
                    CHANNELS 3 Zrotation Xrotation Yrotation
                    JOINT LeftForeArm
                    {
                        OFFSET 0.282002 0.000000 0.000000
                        CHANNELS 3 Zrotation Xrotation Yrotation
                        JOINT LeftHand
                        {
                            OFFSET 0.358743 0.000000 0.000000
                            CHANNELS 3 Zrotation Xrotation Yrotation
                            End Site
                            {
                                OFFSET 0.148797 0.000000 0.000000
                            }
                        }
                    }
                }
            }
            JOINT RightShoulder
            {
                OFFSET -0.039404 0.224479 -0.002125
                CHANNELS 3 Zrotation Xrotation Yrotation
                JOINT RightArm
                {
                    OFFSET -0.116942 0.000000 0.000000
                    CHANNELS 3 Zrotation Xrotation Yrotation
                    JOINT RightForeArm
                    {
                        OFFSET -0.282002 0.000000 0.000000
                        CHANNELS 3 Zrotation Xrotation Yrotation
                        JOINT RightHand
                        {
                            OFFSET -0.358743 0.000000 0.000000
                            CHANNELS 3 Zrotation Xrotation Yrotation
                            End Site
                            {
                                OFFSET -0.148797 0.000000 0.000000
                            }
                        }
                    }
                }
            }
        }
    }
    JOINT LeftUpLeg
    {
        OFFSET 0.099198 0.000000 0.000000
        CHANNELS 3 Zrotation Xrotation Yrotation
        JOINT LeftLeg
        {
            OFFSET -0.000000 -0.332973 0.000000
            CHANNELS 3 Zrotation Xrotation Yrotation
            JOINT LeftFoot
            {
                OFFSET -0.000000 -0.491254 0.000000
                CHANNELS 3 Zrotation Xrotation Yrotation
                JOINT LeftToeBase
                {
                    OFFSET -0.000000 -0.064479 0.148797
                    CHANNELS 3 Zrotation Xrotation Yrotation
                    End Site
                    {
                        OFFSET -0.000000 0.000000 0.039679
                    }
                }
            }
        }
    }
    JOINT RightUpLeg
    {
        OFFSET -0.099198 0.000000 0.000000
        CHANNELS 3 Zrotation Xrotation Yrotation
        JOINT RightLeg
        {
            OFFSET -0.000000 -0.332973 0.000000
            CHANNELS 3 Zrotation Xrotation Yrotation
            JOINT RightFoot
            {
                OFFSET -0.000000 -0.491254 0.000000
                CHANNELS 3 Zrotation Xrotation Yrotation
                JOINT RightToeBase
                {
                    OFFSET -0.000000 -0.064479 0.148797
                    CHANNELS 3 Zrotation Xrotation Yrotation
                    End Site
                    {
                        OFFSET -0.000000 0.000000 0.039679
                    }
                }
            }
        }
    }
}
MOTION
Frames:    8
Frame Time:    0.010000
0.092172    0.846942    0.372611    7.059892    1.597667    126.178139    -0.765116    3.064533    -10.600863    1.786582    13.928760    -3.757577    -0.728475    10.344774    -9.233402    12.864663    -17.998133    -5.778964    -10.065892    31.627584    -1.768331    -23.304670    34.867085    -41.833557    32.186714    -8.505385    -60.068474    -12.588484    10.576535    1.096367    9.417862    26.406174    6.750473    45.782856    28.270714    18.084478    -56.707386    -4.079417    43.033844    -1.550996    20.275354    -2.705868    2.929353    17.396439    -19.136681    -4.437604    22.066837    -13.022912    13.739997    -23.068392    19.631262    0.000000    0.000000    0.000000    -0.389323    -23.658928    8.292448    4.927218    20.944727    -6.532298    8.287244    -0.888540    -14.676146    0.000000    0.000000    0.000000    
0.101737    0.845295    0.368119    7.094435    1.665438    126.839478    -0.615707    2.887714    -10.774293    1.948350    13.948793    -3.833879    -0.815779    10.461488    -9.302266    12.697760    -18.161615    -5.878828    -10.175179    31.775133    -1.760558    -23.712212    34.827599    -41.683022    32.710796    -8.679307    -59.908314    -12.377806    10.679117    1.055016    9.392007    26.344679    6.853825    45.665672    26.795345    17.970865    -55.785309    -3.427938    44.495712    -0.664497    21.292561    -3.388284    3.271591    17.756979    -19.373669    -4.467741    22.499640    -13.270284    13.495111    -22.995296    19.484570    0.000000    0.000000    0.000000    -0.235648    -23.838007    7.142151    4.554782    22.267952    -5.496552    7.715476    0.447787    -14.410125    0.000000    0.000000    0.000000    
0.111459    0.843850    0.363638    7.195434    1.731133    127.445679    -0.485836    2.896565    -11.052366    1.973493    13.846077    -3.926747    -0.387355    10.443129    -9.220436    12.171722    -18.246052    -5.964308    -10.286228    32.008205    -1.279523    -24.274561    34.459396    -41.722103    32.991398    -8.483630    -59.990170    -12.284634    11.060678    1.282634    9.550250    26.283035    7.024137    45.232155    26.421352    18.122831    -54.434246    -3.757406    45.124653    -1.884446    20.686928    -2.525477    3.624695    18.091940    -19.675604    -4.491068    23.064285    -13.675644    13.256371    -22.812950    19.504969    0.000000    0.000000    0.000000    -0.119271    -23.877649    6.118632    4.307207    23.504412    -4.623059    7.071299    0.527801    -14.595161    0.000000    0.000000    0.000000    
0.119065    0.849657    0.352931    7.806559    6.317845    127.850639    -3.212190    6.390691    -10.820375    2.067056    13.365376    -3.906869    -0.897765    10.595885    -9.431215    12.251261    -18.474932    -6.110465    -10.561460    32.056305    -1.542885    -24.275225    34.933453    -41.621845    33.882896    -8.944222    -59.217709    -12.266057    10.885729    0.990270    9.584588    26.115210    6.915039    45.223145    26.560280    18.137146    -55.126949    -3.173514    44.687759    -0.312858    21.298464    -3.224936    -0.620190    21.902050    -20.674692    -3.471377    22.821575    -12.544291    10.584712    -18.436243    18.394306    0.000000    0.000000    0.000000    -4.145248    -20.326416    4.610577    4.536509    24.426695    -4.137886    6.711770    0.426161    -14.078937    0.000000    0.000000    0.000000    
0.128871    0.848997    0.348552    8.065286    6.227135    128.387085    -2.828352    6.478459    -10.931682    2.362381    13.213479    -3.968867    -1.438341    10.598099    -9.505976    12.847635    -18.317839    -5.998045    -10.888721    32.074490    -1.412905    -24.592901    34.932472    -41.469299    33.975330    -8.975657    -59.010818    -11.651324    10.829401    1.029121    9.658378    25.971077    6.930115    44.779472    26.159710    18.114012    -54.408592    -2.862314    45.308422    -0.188622    21.584894    -3.429742    -0.171152    22.023796    -20.926874    -3.405483    23.798162    -12.895781    9.722954    -18.083309    18.375961    0.000000    0.000000    0.000000    -3.838231    -20.299168    4.210884    4.475351    25.709051    -4.350876    6.678092    0.559877    -14.052342    0.000000    0.000000    0.000000    
0.138570    0.848653    0.344316    8.349383    5.910756    128.877716    -2.100545    6.361938    -11.043610    2.438938    13.135944    -3.998883    -1.532427    10.583982    -9.561020    12.697651    -18.284613    -6.098703    -11.147635    32.019779    -1.308162    -24.952745    34.862480    -41.260658    34.026680    -8.809543    -58.761181    -11.639842    10.910873    1.168937    9.800360    25.940294    7.032905    44.341137    25.958542    18.383280    -53.986855    -2.424753    45.312065    0.057949    21.771019    -3.419168    0.383131    21.835953    -21.154022    -3.358987    25.041533    -12.845602    8.898144    -17.745857    18.022066    0.000000    0.000000    0.000000    -3.542092    -20.148340    4.001703    4.835872    26.593630    -4.571763    7.390836    0.621922    -14.307733    0.000000    0.000000    0.000000    
0.148294    0.848593    0.339979    8.706209    5.518733    129.310059    -1.185815    6.255107    -11.207716    2.279062    12.970972    -4.014468    -1.351156    10.784842    -9.637332    12.468467    -18.439219    -6.242637    -11.287464    32.122303    -1.052137    -25.309032    34.711918    -41.246361    33.847916    -8.666943    -58.434242    -11.484199    10.785208    1.424754    10.023721    25.878382    7.303499    43.844269    25.972591    18.540258    -53.567013    -2.047457    45.173813    0.293367    21.820829    -3.666829    0.977012    21.526066    -21.391008    -3.383436    26.438917    -12.510469    8.161190    -17.299812    17.487978    0.000000    0.000000    0.000000    -3.186950    -20.006783    3.816524    5.344727    27.392776    -5.046391    7.828782    0.987271    -14.270964    0.000000    0.000000    0.000000    
0.157948    0.848887    0.335566    9.092785    5.170407    129.632828    -0.196444    6.172115    -11.301763    2.081759    12.733043    -4.000933    -1.460156    10.978139    -9.543122    12.287412    -18.428581    -6.196617    -11.505468    32.281105    -0.883180    -25.603024    34.536324    -41.088112    33.873592    -8.401470    -58.012062    -12.118718    10.884328    1.446575    10.123841    26.037428    7.703996    43.580898    26.242477    19.027224    -53.728317    -1.443682    44.131081    0.749524    21.852654    -3.379676    1.585668    21.084393    -21.733282    -3.759001    27.927378    -11.183125    7.096607    -16.576544    16.226322    0.000000    0.000000    0.000000    -2.922543    -19.573812    3.260189    5.798886    27.854013    -5.258741    7.926958    1.115869    -14.032191    0.000000    0.000000    0.000000    
